<svg width="57" height="41" viewBox="0 0 57 41" fill="none" xmlns="http://www.w3.org/2000/svg">
<g clip-path="url(#clip0_64_3290)">
<path fill-rule="evenodd" clip-rule="evenodd" d="M40.3895 1.933C39.0297 0.282248 36.5622 0.101525 34.9696 1.50103L29.8811 5.97504C28.8717 6.86235 27.3457 6.86235 26.3358 5.97504L21.2474 1.50103C19.6552 0.101525 17.1877 0.282689 15.827 1.933C14.5531 3.48018 14.8158 5.76347 16.3251 7.09024L21.8411 11.9398C23.439 13.3446 24.3527 15.3542 24.3527 17.4638V25.9137C24.3527 27.9052 25.907 29.619 27.9275 29.7133C30.0839 29.8129 31.8638 28.1203 31.8638 26.0177V17.4647C31.8638 15.355 32.7775 13.3455 34.3763 11.9407L39.8914 7.09024C41.4003 5.76435 41.6634 3.48018 40.3895 1.933Z" fill="#00959C"/>
<path fill-rule="evenodd" clip-rule="evenodd" d="M45.2625 29.7177C39.3162 29.7177 34.4777 24.9528 34.4777 19.0947C34.4777 13.2384 39.3158 8.47343 45.2625 8.47343C51.2087 8.47343 56.0468 13.2384 56.0468 19.0951C56.0468 24.9523 51.2092 29.7182 45.2629 29.7182M45.2629 15.8716C43.4579 15.8716 41.9896 17.3174 41.9896 19.0951C41.9896 20.8728 43.4574 22.3195 45.2625 22.3195C47.0671 22.3195 48.5353 20.8728 48.5353 19.0951C48.5353 17.3179 47.0679 15.8716 45.2629 15.8716ZM21.712 19.04C21.6935 13.1996 16.8633 8.45227 10.9281 8.45227C4.98181 8.45227 0.142822 13.2172 0.142822 19.0753C0.142822 24.9316 4.98137 29.697 10.9281 29.697C13.2078 29.697 15.3227 28.9948 17.0665 27.8016C17.2754 28.8674 18.2267 29.6736 19.3705 29.6736C20.6664 29.6736 21.7177 28.6378 21.7177 27.3617V19.1586C21.7177 19.1189 21.7142 19.0806 21.712 19.0414M10.9281 22.2988C9.12303 22.2988 7.65476 20.853 7.65476 19.0753C7.65476 17.2976 9.12259 15.8514 10.9281 15.8514C12.7327 15.8514 14.2009 17.2972 14.2009 19.0753C14.2009 20.853 12.7331 22.2988 10.9281 22.2988ZM44.3531 33.1748L41.1177 31.8811C40.394 31.592 39.5675 31.9353 39.273 32.649C38.9786 33.363 39.3281 34.1767 40.0532 34.4672L40.2494 34.5452C36.8738 36.2357 32.5598 37.1882 28.1087 37.1882C22.2215 37.1882 16.7875 35.5996 13.199 32.8297C12.5832 32.3545 11.6924 32.4608 11.2102 33.0677C10.7275 33.6738 10.8355 34.5505 11.4513 35.0257C15.5286 38.1738 21.6 39.9789 28.1087 39.9789C32.9067 39.9789 37.4446 39.0082 41.1614 37.2195C40.9313 37.9102 41.2791 38.6684 41.9733 38.9461C42.1479 39.0166 42.3281 39.0492 42.5058 39.0492C43.0656 39.0492 43.5958 38.7204 43.8193 38.1787L45.1329 34.9918C45.4269 34.2777 45.0773 33.4644 44.3527 33.1744" fill="#00959C"/>
</g>
<defs>
<clipPath id="clip0_64_3290">
<rect width="56.4211" height="39.6711" fill="white" transform="translate(0 0.518066)"/>
</clipPath>
</defs>
</svg>
